<svg xmlns="http://www.w3.org/2000/svg" xmlns:xlink="http://www.w3.org/1999/xlink" width="1080" zoomAndPan="magnify" viewBox="0 0 810 1079.999946" height="1440" preserveAspectRatio="xMidYMid meet" version="1.0"><defs><clipPath id="941165704c"><path d="M 136.320312 271.320312 L 673.320312 271.320312 L 673.320312 808.320312 L 136.320312 808.320312 Z M 136.320312 271.320312 " clip-rule="nonzero"/></clipPath></defs><g clip-path="url(#941165704c)"><path fill="#ff5512" d="M 654.972656 499.960938 C 655.082031 491.914062 653.792969 483.867188 650.894531 476.464844 C 646.175781 464.660156 637.054688 451.359375 616.777344 448.246094 C 627.078125 432.582031 624.179688 417.558594 619.351562 406.402344 C 616.242188 399.105469 611.414062 392.5625 605.617188 386.875 C 583.195312 364.878906 592.527344 347.820312 592.527344 347.820312 C 592.527344 347.820312 575.46875 357.15625 553.476562 334.730469 C 547.789062 328.9375 541.242188 324.214844 533.949219 320.996094 C 522.359375 315.953125 506.375 313.058594 489.851562 325.179688 C 485.988281 306.835938 473.328125 298.25 462.167969 293.746094 C 454.765625 290.847656 446.71875 289.558594 438.671875 289.667969 C 407.234375 289.988281 401.761719 271.429688 401.761719 271.429688 C 401.761719 271.429688 396.289062 290.097656 364.960938 289.773438 C 356.914062 289.667969 348.867188 290.953125 341.464844 293.851562 C 329.660156 298.574219 316.359375 307.691406 313.246094 327.972656 C 297.582031 317.671875 282.5625 320.566406 271.402344 325.394531 C 264.105469 328.507812 257.5625 333.335938 251.875 339.128906 C 229.878906 361.445312 212.820312 352.113281 212.820312 352.113281 C 212.820312 352.113281 222.15625 369.171875 199.730469 391.167969 C 193.9375 396.851562 189.214844 403.398438 185.996094 410.695312 C 180.953125 422.28125 178.058594 438.269531 190.179688 454.789062 C 171.835938 458.652344 163.25 471.3125 158.746094 482.472656 C 155.847656 489.875 154.558594 497.921875 154.667969 505.96875 C 154.882812 537.300781 136.320312 542.769531 136.320312 542.769531 C 136.320312 542.769531 154.988281 548.242188 154.667969 579.574219 C 154.558594 587.621094 155.847656 595.667969 158.746094 603.070312 C 163.464844 614.871094 172.585938 628.175781 192.863281 631.289062 C 182.5625 646.953125 185.460938 661.972656 190.289062 673.132812 C 193.398438 680.425781 198.230469 686.972656 204.023438 692.660156 C 226.445312 714.652344 217.113281 731.714844 217.113281 731.714844 C 217.113281 731.714844 234.171875 722.378906 256.167969 744.804688 C 261.851562 750.597656 268.398438 755.316406 275.695312 758.535156 C 287.28125 763.578125 303.269531 766.476562 319.792969 754.351562 C 323.652344 772.699219 336.3125 781.28125 347.578125 785.789062 C 354.984375 788.6875 363.03125 789.972656 371.078125 789.867188 C 402.40625 789.652344 407.878906 808.214844 407.878906 808.214844 C 407.878906 808.214844 413.351562 789.652344 444.679688 789.867188 C 452.726562 789.972656 460.773438 788.6875 468.175781 785.789062 C 479.980469 781.066406 493.285156 771.949219 496.394531 751.667969 C 512.058594 761.96875 527.082031 759.074219 538.238281 754.246094 C 545.535156 751.132812 552.078125 746.304688 557.765625 740.511719 C 579.761719 718.085938 596.820312 727.421875 596.820312 727.421875 C 596.820312 727.421875 587.488281 710.363281 609.910156 688.367188 C 615.703125 682.679688 620.425781 676.136719 623.644531 668.839844 C 628.6875 657.253906 631.582031 641.265625 619.460938 624.742188 C 637.808594 620.878906 646.390625 608.21875 650.894531 596.953125 C 653.792969 589.550781 655.082031 581.503906 654.972656 573.457031 C 654.757812 542.128906 673.320312 536.65625 673.320312 536.65625 C 673.320312 536.65625 654.652344 531.398438 654.972656 499.960938 Z M 654.972656 499.960938 " fill-opacity="1" fill-rule="nonzero"/></g></svg>